<svg width="16" height="20" viewBox="0 0 16 20" fill="none" xmlns="http://www.w3.org/2000/svg">
<path d="M9.19719 18.1356L8.40442 19.0908C8.06874 19.4952 7.52595 19.4952 7.19384 19.0908L0.251758 10.7314C-0.0839192 10.327 -0.0839192 9.67301 0.251758 9.27289L7.19384 0.909209C7.52952 0.504792 8.07231 0.504792 8.40442 0.909209L9.19719 1.86432C9.53644 2.27304 9.52929 2.9399 9.1829 3.34001L4.87981 8.27906H15.143C15.6179 8.27906 16 8.73941 16 9.31161V10.6884C16 11.2606 15.6179 11.7209 15.143 11.7209H4.87981L9.1829 16.66C9.53286 17.0601 9.54001 17.7269 9.19719 18.1356Z" fill="white"/>
</svg>
