<svg width="100" height="75" viewBox="0 0 100 75" fill="none" xmlns="http://www.w3.org/2000/svg">
<path d="M0 75V0H3.51562V75H0ZM5.24551 74.9467V0H7.03125V74.9467H5.24551ZM10.5469 74.9467V0H12.2768V74.9467H10.5469ZM19.308 74.9467V0H21.0379V74.9467H19.308ZM26.3393 74.9467V0H29.799V74.9467H26.3393ZM35.1004 74.9467V0H36.8303V74.9467H35.1004ZM38.616 74.9467V0H40.3459V74.9467H38.616ZM42.1316 74.9467V0H43.8615V74.9467H42.1316ZM49.1072 74.9467V0H52.6228V74.9467H49.1072ZM57.8684 74.9467V0H61.384V74.9467H57.8684ZM64.8994 74.9467V0H68.4152V74.9467H64.8994ZM71.9309 74.9467V0H75.4467V74.9467H71.9309ZM77.1764 74.9467V0H80.692V74.9467H77.1764ZM85.9934 74.9467V0H91.2389V74.9467H85.9934ZM92.9688 74.9467V0H94.7545V74.9467H92.9688ZM96.4844 75V0H100V75H96.4844Z" fill="white"/>
</svg>
