<svg width="43" height="48" viewBox="0 0 43 48" fill="none" xmlns="http://www.w3.org/2000/svg">
<path d="M12.5 13.875V10.125C12.5 9.50625 13.0063 9 13.625 9H17.375C17.9937 9 18.5 9.50625 18.5 10.125V13.875C18.5 14.4937 17.9937 15 17.375 15H13.625C13.0063 15 12.5 14.4937 12.5 13.875ZM25.625 15H29.375C29.9937 15 30.5 14.4937 30.5 13.875V10.125C30.5 9.50625 29.9937 9 29.375 9H25.625C25.0063 9 24.5 9.50625 24.5 10.125V13.875C24.5 14.4937 25.0063 15 25.625 15ZM13.625 24H17.375C17.9937 24 18.5 23.4937 18.5 22.875V19.125C18.5 18.5063 17.9937 18 17.375 18H13.625C13.0063 18 12.5 18.5063 12.5 19.125V22.875C12.5 23.4937 13.0063 24 13.625 24ZM25.625 24H29.375C29.9937 24 30.5 23.4937 30.5 22.875V19.125C30.5 18.5063 29.9937 18 29.375 18H25.625C25.0063 18 24.5 18.5063 24.5 19.125V22.875C24.5 23.4937 25.0063 24 25.625 24ZM18.5 31.875V28.125C18.5 27.5063 17.9937 27 17.375 27H13.625C13.0063 27 12.5 27.5063 12.5 28.125V31.875C12.5 32.4937 13.0063 33 13.625 33H17.375C17.9937 33 18.5 32.4937 18.5 31.875ZM25.625 33H29.375C29.9937 33 30.5 32.4937 30.5 31.875V28.125C30.5 27.5063 29.9937 27 29.375 27H25.625C25.0063 27 24.5 27.5063 24.5 28.125V31.875C24.5 32.4937 25.0063 33 25.625 33ZM42.5 44.625V48H0.5V44.625C0.5 44.0063 1.00625 43.5 1.625 43.5H3.45312V2.25C3.45312 1.00312 4.45625 0 5.70312 0H37.2969C38.5438 0 39.5469 1.00312 39.5469 2.25V43.5H41.375C41.9937 43.5 42.5 44.0063 42.5 44.625ZM7.95312 43.4062H18.5V37.125C18.5 36.5063 19.0063 36 19.625 36H23.375C23.9937 36 24.5 36.5063 24.5 37.125V43.4062H35.0469V4.59375L8 4.5L7.95312 43.4062Z" fill="white"/>
</svg>
