<svg width="23" height="22" viewBox="0 0 23 22" fill="none" xmlns="http://www.w3.org/2000/svg">
<path d="M11.7549 10.5686C11.1855 10.5686 10.7236 11.0301 10.7236 11.5998C10.7726 14.7043 10.3738 17.6971 9.53337 20.6899C9.41606 21.1075 9.62575 22 10.5268 22C10.9771 22 11.3909 21.7027 11.519 21.2472C12.1004 19.1886 12.8527 15.8585 12.7857 11.5998C12.7861 11.0305 12.3247 10.5686 11.7549 10.5686ZM11.7179 7.05676C9.08563 7.05375 7.2487 9.0793 7.28522 11.4005C7.31745 13.4604 7.12408 15.5216 6.71072 17.5257C6.59513 18.0834 6.95436 18.6295 7.51167 18.7443C8.07242 18.859 8.61469 18.5011 8.73028 17.9433C9.17458 15.791 9.38212 13.5786 9.34774 11.3682C9.33013 10.2532 10.2037 9.11281 11.6874 9.11926C13.0328 9.13945 14.1431 10.2081 14.1633 11.5027C14.1964 13.5674 14.0426 15.6419 13.7074 17.6709C13.6142 18.2321 13.9949 18.7632 14.5565 18.856C15.4146 18.9991 15.7085 18.2071 15.7416 18.0065C16.0974 15.8568 16.2598 13.6576 16.2258 11.4705C16.188 9.07285 14.1659 7.09285 11.7179 7.05676ZM6.96166 6.20683C6.51908 5.84847 5.87153 5.91465 5.51102 6.35636C4.41015 7.70988 3.81846 9.41918 3.84596 11.1689C3.87131 12.7836 3.73983 14.4031 3.45451 15.9835C3.35396 16.5443 3.72565 17.0805 4.2864 17.1819C5.15051 17.3323 5.44957 16.5455 5.48481 16.35C5.79376 14.6382 5.93598 12.8842 5.90848 11.1366C5.88829 9.85273 6.3038 8.64961 7.11162 7.65746C7.47042 7.21574 7.40339 6.56648 6.96166 6.20683ZM11.6655 3.52859C11.0033 3.51097 10.339 3.59047 9.69837 3.74215C9.1445 3.87363 8.8016 4.42879 8.93223 4.98351C9.06372 5.53738 9.61974 5.87855 10.1736 5.74965C10.6484 5.6375 11.1391 5.58765 11.6346 5.59109C14.8757 5.63965 17.5527 8.23367 17.6021 11.3738C17.6275 13.0015 17.5471 14.6442 17.3624 16.2564C17.2979 16.8223 17.704 17.334 18.2694 17.3985C18.9879 17.4823 19.3656 16.888 19.4116 16.4914C19.6068 14.7821 19.6914 13.0619 19.6647 11.3416C19.5976 7.09844 16.0093 3.59304 11.6655 3.52859ZM22.4968 8.74715C22.3739 8.19199 21.8303 7.83621 21.2674 7.96211C20.7114 8.085 20.3599 8.635 20.4828 9.19144C20.6852 10.1114 20.6938 10.7989 20.6848 11.8383C20.68 12.4085 21.1381 12.8734 21.7074 12.8782H21.716C22.2819 12.8782 22.7425 12.4223 22.7473 11.8555C22.755 10.9025 22.7645 9.96015 22.4968 8.74715ZM20.7728 4.84902C18.6802 1.86742 15.256 0.0554269 11.6127 0.000856543C8.61383 -0.0352372 5.84016 1.07035 3.77721 3.13414C1.78473 5.12918 0.710924 7.77906 0.755612 10.5982L0.750455 11.5208C0.733697 12.0901 1.18144 12.5653 1.75078 12.5817C1.76066 12.5825 1.7714 12.5825 1.78172 12.5825C2.33688 12.5825 2.79536 12.14 2.81169 11.5814L2.81857 10.5656C2.7829 8.30972 3.64186 6.18879 5.23688 4.59293C6.90236 2.92574 9.16169 2.02898 11.5826 2.06379C14.5668 2.10804 17.3718 3.59176 19.0859 6.03367C19.4129 6.50031 20.0553 6.6116 20.5219 6.28547C20.9877 5.95804 21.1003 5.3148 20.7728 4.84902Z" fill="white"/>
</svg>
