<svg width="43" height="34" viewBox="0 0 43 34" fill="none" xmlns="http://www.w3.org/2000/svg">
<path d="M39.4167 0H3.58333C1.60503 0 0 1.6317 0 3.64286V30.3571C0 32.3683 1.60503 34 3.58333 34H39.4167C41.395 34 43 32.3683 43 30.3571V3.64286C43 1.6317 41.395 0 39.4167 0ZM39.4167 30.3571H3.58333V3.64286H39.4167V30.3571ZM15.5278 17C18.163 17 20.3056 14.8219 20.3056 12.1429C20.3056 9.46384 18.163 7.28571 15.5278 7.28571C12.8925 7.28571 10.75 9.46384 10.75 12.1429C10.75 14.8219 12.8925 17 15.5278 17ZM8.83889 26.7143H22.2167C23.1424 26.7143 23.8889 26.0616 23.8889 25.2571V23.8C23.8889 21.3866 21.6418 19.4286 18.8722 19.4286C18.066 19.4286 17.4762 20.0357 15.5278 20.0357C13.5196 20.0357 13.0344 19.4286 12.1833 19.4286C9.41372 19.4286 7.16667 21.3866 7.16667 23.8V25.2571C7.16667 26.0616 7.91319 26.7143 8.83889 26.7143ZM26.875 21.8571H35.2361C35.5646 21.8571 35.8333 21.5839 35.8333 21.25V20.0357C35.8333 19.7018 35.5646 19.4286 35.2361 19.4286H26.875C26.5465 19.4286 26.2778 19.7018 26.2778 20.0357V21.25C26.2778 21.5839 26.5465 21.8571 26.875 21.8571ZM26.875 17H35.2361C35.5646 17 35.8333 16.7268 35.8333 16.3929V15.1786C35.8333 14.8446 35.5646 14.5714 35.2361 14.5714H26.875C26.5465 14.5714 26.2778 14.8446 26.2778 15.1786V16.3929C26.2778 16.7268 26.5465 17 26.875 17ZM26.875 12.1429H35.2361C35.5646 12.1429 35.8333 11.8696 35.8333 11.5357V10.3214C35.8333 9.9875 35.5646 9.71429 35.2361 9.71429H26.875C26.5465 9.71429 26.2778 9.9875 26.2778 10.3214V11.5357C26.2778 11.8696 26.5465 12.1429 26.875 12.1429Z" fill="white"/>
</svg>
