<svg width="43" height="35" viewBox="0 0 43 35" fill="none" xmlns="http://www.w3.org/2000/svg">
<path d="M41.2353 29.9644H36.0418V8.24582C36.0418 6.47614 34.6441 5.03559 32.9257 5.03559H25.6548V9.19039H31.887V34.1192H41.2353C41.8092 34.1192 42.274 33.6544 42.274 33.0805V31.0031C42.274 30.4292 41.8092 29.9644 41.2353 29.9644ZM20.9962 0.946364L8.53184 4.17542C7.60675 4.41497 6.95821 5.27579 6.95821 6.26386V29.9644H1.76471C1.19083 29.9644 0.726013 30.4292 0.726013 31.0031V33.0805C0.726013 33.6544 1.19083 34.1192 1.76471 34.1192H23.5774V3.0348C23.5774 1.63385 22.3076 0.60619 20.9962 0.946364ZM17.8646 19.5774C17.0044 19.5774 16.3065 18.6471 16.3065 17.5C16.3065 16.3529 17.0044 15.4226 17.8646 15.4226C18.7247 15.4226 19.4226 16.3529 19.4226 17.5C19.4226 18.6471 18.7247 19.5774 17.8646 19.5774Z" fill="white"/>
</svg>
