<svg width="17" height="15" viewBox="0 0 17 15" fill="none" xmlns="http://www.w3.org/2000/svg">
<path d="M8.49992 11.0677C6.48516 11.0677 4.85422 9.44322 4.70415 7.38465L1.91775 5.14152C1.55145 5.6202 1.21438 6.12626 0.942377 6.67964C0.881613 6.80485 0.849954 6.94318 0.849954 7.08347C0.849954 7.22377 0.881613 7.3621 0.942377 7.4873C2.38286 10.415 5.2346 12.3958 8.49992 12.3958C9.21471 12.3958 9.90427 12.2851 10.5689 12.1064L9.19054 10.9955C8.96291 11.0413 8.73175 11.0654 8.49992 11.0677ZM16.8357 12.6752L13.8993 10.3112C14.7913 9.52814 15.5249 8.56813 16.0575 7.48702C16.1182 7.36182 16.1499 7.22349 16.1499 7.0832C16.1499 6.9429 16.1182 6.80457 16.0575 6.67937C14.617 3.75171 11.7652 1.77089 8.49992 1.77089C7.13235 1.77261 5.78699 2.13124 4.58674 2.81401L1.20747 0.0933171C1.1634 0.0575985 1.11301 0.0312751 1.05918 0.0158509C1.00534 0.000426734 0.949112 -0.00379578 0.893708 0.00342465C0.838304 0.0106451 0.784809 0.0291669 0.73628 0.0579318C0.687751 0.0866966 0.645138 0.125141 0.610878 0.171067L0.0894579 0.870262C0.020289 0.962949 -0.0107052 1.08046 0.00329218 1.19695C0.0172895 1.31344 0.0751321 1.41936 0.164098 1.49143L15.7924 14.0733C15.8364 14.1091 15.8868 14.1354 15.9407 14.1508C15.9945 14.1662 16.0507 14.1705 16.1061 14.1632C16.1615 14.156 16.215 14.1375 16.2636 14.1087C16.3121 14.08 16.3547 14.0415 16.389 13.9956L16.9106 13.2964C16.9798 13.2037 17.0107 13.0862 16.9967 12.9697C16.9826 12.8532 16.9247 12.7473 16.8357 12.6752ZM11.9557 8.74624L10.9118 7.90566C10.9997 7.64099 11.0463 7.36337 11.0499 7.08333C11.0551 6.67335 10.9679 6.26782 10.7953 5.89931C10.6228 5.53079 10.3696 5.20958 10.0563 4.96146C9.74288 4.71334 9.37802 4.54523 8.99097 4.47064C8.60392 4.39605 8.20547 4.41706 7.82762 4.53198C7.9878 4.75806 8.07444 5.03154 8.07492 5.31252C8.07096 5.40602 8.05724 5.4988 8.03401 5.58921L6.07875 4.01512C6.75795 3.42389 7.61478 3.09968 8.49992 3.099C9.0023 3.09871 9.49981 3.20157 9.96401 3.4017C10.4282 3.60182 10.85 3.8953 11.2052 4.26533C11.5605 4.63537 11.8422 5.07472 12.0343 5.55825C12.2264 6.04178 12.3252 6.56002 12.3249 7.08333C12.3249 7.68181 12.1844 8.23962 11.9557 8.74652V8.74624Z" fill="white"/>
</svg>
