<svg width="41" height="38" viewBox="0 0 41 38" fill="none" xmlns="http://www.w3.org/2000/svg">
<path d="M20.1562 0.5C15.2859 0.5 11.3379 4.5765 11.3379 9.60547C11.3379 13.6711 17.1013 21.0812 19.3094 23.771C19.7566 24.3159 20.5566 24.3159 21.0031 23.771C23.2112 21.0812 28.9746 13.6711 28.9746 9.60547C28.9746 4.5765 25.0266 0.5 20.1562 0.5ZM20.1562 12.6406C18.5326 12.6406 17.2168 11.282 17.2168 9.60547C17.2168 7.92891 18.5326 6.57031 20.1562 6.57031C21.7799 6.57031 23.0957 7.92891 23.0957 9.60547C23.0957 11.282 21.7799 12.6406 20.1562 12.6406ZM1.40814 16.1058C0.99254 16.2774 0.636273 16.5737 0.385285 16.9564C0.134297 17.339 9.9536e-05 17.7906 0 18.2528L0 36.3423C0 37.1604 0.799951 37.7197 1.53551 37.4162L11.1979 32.875V16.0313C10.5792 14.8765 10.0732 13.7521 9.71069 12.6768L1.40814 16.1058ZM20.1562 26.4918C19.1715 26.4918 18.24 26.0452 17.601 25.2662C16.2251 23.5896 14.7617 21.6803 13.4375 19.7219V32.8743L26.875 37.4993V19.7227C25.5508 21.6803 24.0881 23.5903 22.7115 25.2669C22.0725 26.0452 21.141 26.4918 20.1562 26.4918ZM38.777 12.1463L29.1146 16.6875V37.5L38.9044 33.4567C39.32 33.2852 39.6763 32.9889 39.9273 32.6062C40.1783 32.2235 40.3125 31.7719 40.3125 31.3097V13.2202C40.3125 12.4021 39.5125 11.8428 38.777 12.1463Z" fill="white"/>
</svg>
