<svg width="61" height="36" viewBox="0 0 61 36" fill="none" xmlns="http://www.w3.org/2000/svg">
<path d="M59.1928 12.0009C54.3349 12.329 47.4044 17.1288 43.8969 18.7038C41.1678 19.9318 38.8139 20.9912 36.76 20.9912C34.6405 20.9912 34.3217 19.4725 34.7625 16.1257C34.8656 15.3758 35.8597 8.70099 30.7579 8.99161C28.404 9.13223 24.7277 11.3165 14.8618 20.8037L18.7537 11.0822C21.6047 3.96679 13.7645 -3.12045 6.59012 1.44501L1.44145 4.90426C0.747455 5.34487 0.541133 6.27296 0.981912 6.97606L2.59497 9.50722C3.03575 10.2103 3.9642 10.4166 4.66757 9.96657L10.107 6.31983C11.8326 5.223 13.9239 6.99481 13.1737 8.86036L3.9642 31.8845C3.32648 33.4688 4.21742 36 6.74955 36C7.52795 36 8.29696 35.7 8.86904 35.1188C12.8267 31.1627 23.3772 20.9912 28.6759 16.7632C28.4696 19.435 28.479 22.2849 30.6079 24.6192C32.0427 26.1941 34.106 26.991 36.7506 26.991C40.0893 26.991 43.1279 25.6223 46.3446 24.1786C49.4394 22.7911 55.6291 18.31 59.3241 18.01C60.1213 17.9444 60.7496 17.3257 60.7496 16.5288V13.5196C60.7684 12.6665 60.0463 11.9446 59.1928 12.0009Z" fill="white"/>
</svg>
