<svg width="23" height="25" viewBox="0 0 23 25" fill="none" xmlns="http://www.w3.org/2000/svg">
<path d="M21.5305 1.56251H15.5501L15.0816 0.649422C14.9824 0.454214 14.8295 0.29001 14.6403 0.175281C14.451 0.0605526 14.2327 -0.00014785 14.0102 8.56089e-06H8.31384C8.09176 -0.000827891 7.87393 0.0596462 7.6853 0.174502C7.49668 0.289359 7.34489 0.453951 7.24734 0.649422L6.77887 1.56251H0.798484C0.587004 1.56251 0.384186 1.64482 0.234647 1.79133C0.0851086 1.93784 0.00109863 2.13656 0.00109863 2.34376L0.00109863 3.90626C0.00109863 4.11346 0.0851086 4.31217 0.234647 4.45868C0.384186 4.6052 0.587004 4.68751 0.798484 4.68751H21.5305C21.742 4.68751 21.9448 4.6052 22.0943 4.45868C22.2439 4.31217 22.3279 4.11346 22.3279 3.90626V2.34376C22.3279 2.13656 22.2439 1.93784 22.0943 1.79133C21.9448 1.64482 21.742 1.56251 21.5305 1.56251ZM2.6524 22.8027C2.69044 23.3978 2.95848 23.9562 3.40197 24.3644C3.84547 24.7726 4.43107 24.9999 5.03958 25H17.2894C17.8979 24.9999 18.4835 24.7726 18.927 24.3644C19.3705 23.9562 19.6385 23.3978 19.6766 22.8027L20.7331 6.25001H1.59587L2.6524 22.8027Z" fill="white"/>
</svg>
