<svg width="94" height="75" viewBox="0 0 94 75" fill="none" xmlns="http://www.w3.org/2000/svg">
<path d="M89.5587 54.6826C89.9395 52.6172 89.9395 50.5078 89.5587 48.4424L93.3379 46.2598C93.7774 46.0107 93.9678 45.498 93.8213 45.0146C92.8399 41.8506 91.1553 38.9795 88.9581 36.6064C88.6212 36.2402 88.0792 36.1523 87.6397 36.4014L83.8604 38.584C82.2637 37.2217 80.4327 36.167 78.4551 35.4639V31.0986C78.4551 30.6006 78.1036 30.1611 77.6202 30.0586C74.3536 29.3262 71.0284 29.3555 67.9229 30.0586C67.4395 30.1611 67.088 30.6006 67.088 31.0986V35.4639C65.1104 36.167 63.2794 37.2217 61.6827 38.584L57.9034 36.4014C57.4786 36.1523 56.9219 36.2402 56.585 36.6064C54.3878 38.9795 52.7032 41.8506 51.7217 45.0146C51.5753 45.498 51.7803 46.0107 52.2051 46.2598L55.9844 48.4424C55.6036 50.5078 55.6036 52.6172 55.9844 54.6826L52.2051 56.8652C51.7657 57.1143 51.5753 57.627 51.7217 58.1104C52.7032 61.2744 54.3878 64.1309 56.585 66.5186C56.9219 66.8848 57.4639 66.9727 57.9034 66.7236L61.6827 64.541C63.2794 65.9033 65.1104 66.958 67.088 67.6611V72.0264C67.088 72.5244 67.4395 72.9639 67.9229 73.0664C71.1895 73.7988 74.5147 73.7695 77.6202 73.0664C78.1036 72.9639 78.4551 72.5244 78.4551 72.0264V67.6611C80.4327 66.958 82.2637 65.9033 83.8604 64.541L87.6397 66.7236C88.0645 66.9727 88.6212 66.8848 88.9581 66.5186C91.1553 64.1455 92.8399 61.2744 93.8213 58.1104C93.9678 57.627 93.7628 57.1143 93.3379 56.8652L89.5587 54.6826ZM72.7862 58.667C68.8604 58.667 65.6817 55.4736 65.6817 51.5625C65.6817 47.6514 68.8751 44.458 72.7862 44.458C76.6973 44.458 79.8907 47.6514 79.8907 51.5625C79.8907 55.4736 76.712 58.667 72.7862 58.667ZM32.9424 37.5C43.2989 37.5 51.6924 29.1064 51.6924 18.75C51.6924 8.39356 43.2989 0 32.9424 0C22.586 0 14.1924 8.39356 14.1924 18.75C14.1924 29.1064 22.586 37.5 32.9424 37.5ZM62.4151 70.6787C62.0782 70.5029 61.7413 70.2979 61.419 70.1074L60.2618 70.7813C59.3829 71.2793 58.3868 71.5576 57.3907 71.5576C55.794 71.5576 54.2559 70.8838 53.1573 69.7119C50.4766 66.8115 48.4258 63.2812 47.2686 59.5166C46.4629 56.9238 47.5469 54.1846 49.8907 52.8223L51.0479 52.1484C51.0333 51.7676 51.0333 51.3867 51.0479 51.0059L49.8907 50.332C47.5469 48.9844 46.4629 46.2305 47.2686 43.6377C47.4004 43.2129 47.5909 42.7881 47.7374 42.3633C47.1807 42.3193 46.6387 42.1875 46.0674 42.1875H43.6212C40.3692 43.6816 36.751 44.5312 32.9424 44.5312C29.1339 44.5312 25.5303 43.6816 22.2637 42.1875H19.8174C8.9483 42.1875 0.129944 51.0059 0.129944 61.875V67.9688C0.129944 71.8506 3.27936 75 7.16119 75H58.7237C60.2032 75 61.5801 74.5313 62.7081 73.7549C62.5323 73.1982 62.4151 72.627 62.4151 72.0264V70.6787Z" fill="white"/>
</svg>
